<svg width="50" height="50" viewBox="0 0 50 50" fill="none" xmlns="http://www.w3.org/2000/svg">
<g id="hammer">
<path id="Vector" d="M42.8267 48.6055C44.5297 50.3893 47.2389 50.4734 48.8454 48.7906C50.452 47.1078 50.3716 44.2699 48.6687 42.4861L16.8913 9.1998C15.1883 7.416 12.4791 7.33186 10.8726 9.01469C9.26604 10.6975 9.34637 13.5354 11.0493 15.3192L42.8267 48.6055Z" fill="#F4900C"/>
<path id="Vector_2" d="M31.3195 1.36548C31.3195 1.36548 22.5565 -3.22405 15.254 4.42516L5.03059 15.1341C5.03059 15.1341 3.5701 13.6042 2.1096 15.1341L0.649108 16.6639C0.649108 16.6639 -0.811386 18.1937 0.649108 19.7236L6.49108 25.843C6.49108 25.843 7.95158 27.3728 9.41207 25.843L10.8726 24.3131C10.8726 24.3131 12.3331 22.7833 10.8726 21.2534L10.7586 21.1341C11.8832 19.9974 13.5672 18.8393 15.254 19.7236L21.096 13.6042C21.096 13.6042 19.6355 9.01469 22.5565 5.955C25.4775 2.89532 26.938 2.89532 29.859 2.89532C32.78 2.89532 31.3195 1.36548 31.3195 1.36548Z" fill="#66757F"/>
</g>
</svg>